<svg width="256" height="256" viewBox="0 0 256 256" fill="none" xmlns="http://www.w3.org/2000/svg">
<g clip-path="url(#clip0_13923_3961)">
<path d="M196 0H60C26.8629 0 0 26.8629 0 60V196C0 229.137 26.8629 256 60 256H196C229.137 256 256 229.137 256 196V60C256 26.8629 229.137 0 196 0Z" fill="#F4F2ED"/>
<path d="M190.866 69C208.229 69.0001 222 83.3695 222 100.732V156.414C222 173.777 208.229 187.548 190.866 187.548H149.554L159.732 173.178L189.669 163.599C195.057 161.802 198.649 156.414 198.649 151.025V105.522C198.649 100.134 195.057 94.7455 189.669 92.9492L159.732 83.3691L149.554 69H190.866ZM106.445 69L96.2676 83.3691L66.3311 92.9492C60.9425 94.7454 57.3496 100.134 57.3496 105.522V151.025C57.3497 156.414 60.9426 161.802 66.3311 163.599L96.2676 172.579L106.445 186.948H65.1338C47.7708 186.948 34.0002 173.178 34 155.815V100.732C34 83.3694 47.7707 69 65.1338 69H106.445ZM159.733 134.86H96.8662V120.491H159.733V134.86Z" fill="#FF6A00"/>
</g>
<defs>
<clipPath id="clip0_13923_3961">
<rect width="256" height="256" fill="white"/>
</clipPath>
</defs>
</svg>
