<svg width="256" height="256" viewBox="0 0 256 256" fill="none" xmlns="http://www.w3.org/2000/svg">
<g clip-path="url(#clip0_13919_3933)">
<path d="M196 0H60C26.8629 0 0 26.8629 0 60V196C0 229.137 26.8629 256 60 256H196C229.137 256 256 229.137 256 196V60C256 26.8629 229.137 0 196 0Z" fill="#F4F2ED"/>
<path d="M119.878 31.1161C124.797 28.3011 131.203 28.2881 136.117 31.1161C160.839 45.0861 185.569 59.0331 210.287 73.0111C214.937 75.6301 218.046 80.8041 217.999 86.1611V170.206C218.034 175.785 214.617 181.083 209.712 183.642C185.071 197.535 160.442 211.444 135.805 225.337C130.786 228.207 124.251 227.986 119.387 224.88C112 220.598 104.6 216.336 97.2121 212.058C95.7021 211.158 94.0001 210.442 92.9341 208.978C93.8771 207.708 95.5621 207.55 96.9311 206.995C100.014 206.014 102.847 204.44 105.679 202.913C106.396 202.423 107.27 202.611 107.957 203.049C114.274 206.671 120.536 210.399 126.874 213.986C128.226 214.767 129.595 213.73 130.751 213.086C154.931 199.419 179.141 185.805 203.318 172.134C204.214 171.703 204.709 170.752 204.636 169.771C204.653 142.046 204.64 114.317 204.645 86.5911C204.747 85.4791 204.103 84.4551 203.096 83.9991C178.541 70.1701 153.997 56.3211 129.446 42.4891C129.021 42.1969 128.517 42.04 128.001 42.0391C127.485 42.0382 126.98 42.1934 126.554 42.4841C102.002 56.3211 77.4641 70.1841 52.9121 84.0111C51.9091 84.4681 51.2361 85.4751 51.3551 86.5911C51.3601 114.317 51.3551 142.046 51.3551 169.775C51.3122 170.254 51.4173 170.735 51.6562 171.152C51.8951 171.57 52.2564 171.904 52.6911 172.109C59.2421 175.824 65.8021 179.513 72.3581 183.216C76.0521 185.203 80.5861 186.385 84.6561 184.862C88.2461 183.574 90.7631 179.909 90.6951 176.097C90.7291 148.534 90.6781 120.967 90.7201 93.4071C90.6301 92.1841 91.7911 91.1731 92.9811 91.2891C96.1291 91.2671 99.2811 91.2461 102.429 91.2971C103.743 91.2671 104.647 92.5851 104.485 93.8171C104.472 121.555 104.519 149.293 104.464 177.03C104.472 184.423 101.435 192.467 94.5971 196.084C86.1741 200.447 75.7621 199.522 67.4401 195.338C60.2361 191.742 53.3601 187.498 46.2841 183.646C41.3661 181.101 37.9661 175.782 38.0011 170.207V86.1611C37.9491 80.6931 41.1831 75.4251 45.9761 72.8441C70.6131 58.9411 95.2461 45.0261 119.878 31.1161Z" fill="#81CD39"/>
<path d="M141.372 89.3352C152.117 88.6432 163.62 88.9252 173.289 94.2192C180.776 98.2752 184.926 106.789 185.058 115.106C184.849 116.227 183.676 116.846 182.605 116.769C179.488 116.765 176.369 116.812 173.252 116.748C171.929 116.799 171.161 115.58 170.995 114.411C170.099 110.431 167.928 106.49 164.183 104.57C158.433 101.692 151.767 101.837 145.496 101.897C140.92 102.139 135.998 102.536 132.12 105.227C129.143 107.266 128.239 111.382 129.301 114.697C130.303 117.077 133.05 117.845 135.298 118.553C148.248 121.94 161.97 121.602 174.671 126.059C179.931 127.876 185.075 131.409 186.875 136.915C189.23 144.295 188.198 153.115 182.947 159.039C178.689 163.914 172.488 166.568 166.303 168.009C158.075 169.844 149.536 169.891 141.18 169.076C133.323 168.18 125.146 166.116 119.081 160.763C113.894 156.259 111.361 149.241 111.612 142.469C111.672 141.325 112.811 140.527 113.907 140.621C117.046 140.596 120.186 140.587 123.325 140.626C124.579 140.536 125.509 141.62 125.573 142.802C126.152 146.593 127.577 150.573 130.883 152.82C137.264 156.937 145.271 156.655 152.577 156.77C158.629 156.502 165.424 156.421 170.364 152.42C172.97 150.138 173.742 146.32 173.038 143.036C172.275 140.263 169.374 138.971 166.883 138.126C154.1 134.083 140.224 135.55 127.565 130.977C122.425 129.161 117.455 125.727 115.481 120.447C112.726 112.974 113.988 103.73 119.789 98.0072C125.445 92.3122 133.609 90.1192 141.372 89.3352Z" fill="#81CD39"/>
</g>
<defs>
<clipPath id="clip0_13919_3933">
<rect width="256" height="256" fill="white"/>
</clipPath>
</defs>
</svg>
