<svg width="256" height="256" viewBox="0 0 256 256" fill="none" xmlns="http://www.w3.org/2000/svg">
<g clip-path="url(#clip0_13923_3984)">
<path d="M196 0H60C26.863 0 0 26.863 0 60V196C0 229.137 26.863 256 60 256H196C229.137 256 256 229.137 256 196V60C256 26.863 229.137 0 196 0Z" fill="#F4F2ED"/>
<path d="M57.7047 93.8574C63.9536 51.9827 112.553 38.024 139.631 41.5133C168.098 45.1819 212.534 65.2426 196.67 129.54C186.15 166.441 145.88 173.42 127.134 161.556C122.274 179.469 109.221 215.435 95.8902 215.994C79.2278 216.69 91.0318 160.858 100.057 135.035L90.352 152.378C88.8212 155.113 85.344 156.05 82.8679 154.138C70.4858 144.576 53.3009 123.369 57.7047 93.8574ZM153.518 77.8052C136.854 63.8471 114.636 66.6386 97.9731 87.5761C81.3105 108.513 95.0753 126.23 100.699 126.23C106.305 126.23 90.4452 101.908 102.833 90.3678C115.222 78.8275 129.164 78.3433 137.548 87.5761C145.933 96.8092 144.493 109.301 128.524 130.149C126.904 131.748 126.578 135.97 135.466 142.496C141.688 147.066 148.598 143.441 148.657 143.41C164.626 131.545 170.181 91.7636 153.518 77.8052Z" fill="#1C7FEA"/>
</g>
<defs>
<clipPath id="clip0_13923_3984">
<rect width="256" height="256" fill="white"/>
</clipPath>
</defs>
</svg>
